<svg width="105" height="105" viewBox="0 0 105 105" fill="none" xmlns="http://www.w3.org/2000/svg">
<g clip-path="url(#clip0_14_66)">
<path fill-rule="evenodd" clip-rule="evenodd" d="M56.454 69.9825C60.8012 67.4629 64.6006 64.0995 67.629 60.09C66.6488 58.5768 65.9548 56.8964 65.5815 55.1325L65.439 54.4725C65.0267 52.59 64.0633 50.8727 62.6715 49.5397C61.2797 48.2067 59.5226 47.3182 57.624 46.9875C42.084 44.2875 42.084 21.9825 57.624 19.275C59.4582 18.9565 61.162 18.1166 62.5319 16.8559C63.9017 15.5951 64.8797 13.9666 65.349 12.165C61.6947 8.18302 57.2229 5.03795 52.2399 2.94526C47.2569 0.852568 41.8804 -0.138291 36.4788 0.0405599C31.0771 0.21941 25.778 1.56374 20.9443 3.98147C16.1106 6.3992 11.8567 9.83318 8.47382 14.0482C5.091 18.2632 2.65923 23.1596 1.34512 28.402C0.0310072 33.6444 -0.134402 39.109 0.860224 44.4213C1.85485 49.7336 3.98601 54.7681 7.1077 59.18C10.2294 63.5919 14.2679 67.2769 18.9465 69.9825V78.75C18.9465 80.7392 19.7366 82.6468 21.1432 84.0533C22.5497 85.4599 24.4573 86.25 26.4465 86.25H48.9465C50.9356 86.25 52.8432 85.4599 54.2498 84.0533C55.6563 82.6468 56.4465 80.7392 56.4465 78.75L56.454 69.9825ZM18.954 99.375C18.954 97.8832 19.5466 96.4524 20.6015 95.3976C21.6564 94.3427 23.0871 93.75 24.579 93.75H50.829C52.3208 93.75 53.7515 94.3427 54.8064 95.3976C55.8613 96.4524 56.454 97.8832 56.454 99.375C56.454 100.867 55.8613 102.298 54.8064 103.353C53.7515 104.407 52.3208 105 50.829 105H24.579C23.0871 105 21.6564 104.407 20.6015 103.353C19.5466 102.298 18.954 100.867 18.954 99.375ZM73.554 12.8775C74.9265 6.60753 83.8515 6.57003 85.2765 12.825L85.344 13.125L85.479 13.71C86.284 17.1381 88.0789 20.2539 90.6404 22.6701C93.202 25.0864 96.4173 26.6964 99.8865 27.3C106.426 28.44 106.426 37.83 99.8865 38.97C96.3976 39.5773 93.1659 41.2018 90.5972 43.6397C88.0286 46.0776 86.2375 49.2201 85.449 52.6725L85.2765 53.4375C83.8515 59.7 74.919 59.6625 73.539 53.385L73.3965 52.7325C72.6404 49.2686 70.8698 46.1082 68.3105 43.6545C65.7512 41.2007 62.5192 39.5647 59.0265 38.955C52.494 37.8225 52.494 28.4475 59.0265 27.3075C62.507 26.7023 65.7296 25.0778 68.2863 22.6399C70.843 20.202 72.6189 17.0603 73.389 13.6125L73.5015 13.125L73.554 12.8775Z" fill="black"/>
</g>
<defs>
<clipPath id="clip0_14_66">
<rect width="105" height="105" fill="white"/>
</clipPath>
</defs>
</svg>
